G04 #@! TF.GenerationSoftware,KiCad,Pcbnew,5.0.0*
G04 #@! TF.CreationDate,2018-09-22T16:21:52+03:00*
G04 #@! TF.ProjectId,hamster-attiny85,68616D737465722D617474696E793835,rev?*
G04 #@! TF.SameCoordinates,Original*
G04 #@! TF.FileFunction,Legend,Top*
G04 #@! TF.FilePolarity,Positive*
%FSLAX46Y46*%
G04 Gerber Fmt 4.6, Leading zero omitted, Abs format (unit mm)*
G04 Created by KiCad (PCBNEW 5.0.0) date Sat Sep 22 16:21:52 2018*
%MOMM*%
%LPD*%
G01*
G04 APERTURE LIST*
%ADD10C,0.120000*%
%ADD11C,0.150000*%
G04 APERTURE END LIST*
D10*
G04 #@! TO.C,C1*
X143170000Y-92000000D02*
G75*
G03X143170000Y-92000000I-3270000J0D01*
G01*
X136670000Y-92000000D02*
X143130000Y-92000000D01*
X136670000Y-91960000D02*
X143130000Y-91960000D01*
X136670000Y-91920000D02*
X143130000Y-91920000D01*
X136672000Y-91880000D02*
X143128000Y-91880000D01*
X136673000Y-91840000D02*
X143127000Y-91840000D01*
X136676000Y-91800000D02*
X143124000Y-91800000D01*
X136678000Y-91760000D02*
X138860000Y-91760000D01*
X140940000Y-91760000D02*
X143122000Y-91760000D01*
X136682000Y-91720000D02*
X138860000Y-91720000D01*
X140940000Y-91720000D02*
X143118000Y-91720000D01*
X136685000Y-91680000D02*
X138860000Y-91680000D01*
X140940000Y-91680000D02*
X143115000Y-91680000D01*
X136689000Y-91640000D02*
X138860000Y-91640000D01*
X140940000Y-91640000D02*
X143111000Y-91640000D01*
X136694000Y-91600000D02*
X138860000Y-91600000D01*
X140940000Y-91600000D02*
X143106000Y-91600000D01*
X136699000Y-91560000D02*
X138860000Y-91560000D01*
X140940000Y-91560000D02*
X143101000Y-91560000D01*
X136705000Y-91520000D02*
X138860000Y-91520000D01*
X140940000Y-91520000D02*
X143095000Y-91520000D01*
X136711000Y-91480000D02*
X138860000Y-91480000D01*
X140940000Y-91480000D02*
X143089000Y-91480000D01*
X136718000Y-91440000D02*
X138860000Y-91440000D01*
X140940000Y-91440000D02*
X143082000Y-91440000D01*
X136725000Y-91400000D02*
X138860000Y-91400000D01*
X140940000Y-91400000D02*
X143075000Y-91400000D01*
X136733000Y-91360000D02*
X138860000Y-91360000D01*
X140940000Y-91360000D02*
X143067000Y-91360000D01*
X136741000Y-91320000D02*
X138860000Y-91320000D01*
X140940000Y-91320000D02*
X143059000Y-91320000D01*
X136750000Y-91279000D02*
X138860000Y-91279000D01*
X140940000Y-91279000D02*
X143050000Y-91279000D01*
X136759000Y-91239000D02*
X138860000Y-91239000D01*
X140940000Y-91239000D02*
X143041000Y-91239000D01*
X136769000Y-91199000D02*
X138860000Y-91199000D01*
X140940000Y-91199000D02*
X143031000Y-91199000D01*
X136779000Y-91159000D02*
X138860000Y-91159000D01*
X140940000Y-91159000D02*
X143021000Y-91159000D01*
X136790000Y-91119000D02*
X138860000Y-91119000D01*
X140940000Y-91119000D02*
X143010000Y-91119000D01*
X136802000Y-91079000D02*
X138860000Y-91079000D01*
X140940000Y-91079000D02*
X142998000Y-91079000D01*
X136814000Y-91039000D02*
X138860000Y-91039000D01*
X140940000Y-91039000D02*
X142986000Y-91039000D01*
X136826000Y-90999000D02*
X138860000Y-90999000D01*
X140940000Y-90999000D02*
X142974000Y-90999000D01*
X136839000Y-90959000D02*
X138860000Y-90959000D01*
X140940000Y-90959000D02*
X142961000Y-90959000D01*
X136853000Y-90919000D02*
X138860000Y-90919000D01*
X140940000Y-90919000D02*
X142947000Y-90919000D01*
X136867000Y-90879000D02*
X138860000Y-90879000D01*
X140940000Y-90879000D02*
X142933000Y-90879000D01*
X136882000Y-90839000D02*
X138860000Y-90839000D01*
X140940000Y-90839000D02*
X142918000Y-90839000D01*
X136898000Y-90799000D02*
X138860000Y-90799000D01*
X140940000Y-90799000D02*
X142902000Y-90799000D01*
X136914000Y-90759000D02*
X138860000Y-90759000D01*
X140940000Y-90759000D02*
X142886000Y-90759000D01*
X136930000Y-90719000D02*
X138860000Y-90719000D01*
X140940000Y-90719000D02*
X142870000Y-90719000D01*
X136948000Y-90679000D02*
X138860000Y-90679000D01*
X140940000Y-90679000D02*
X142852000Y-90679000D01*
X136966000Y-90639000D02*
X138860000Y-90639000D01*
X140940000Y-90639000D02*
X142834000Y-90639000D01*
X136984000Y-90599000D02*
X138860000Y-90599000D01*
X140940000Y-90599000D02*
X142816000Y-90599000D01*
X137004000Y-90559000D02*
X138860000Y-90559000D01*
X140940000Y-90559000D02*
X142796000Y-90559000D01*
X137024000Y-90519000D02*
X138860000Y-90519000D01*
X140940000Y-90519000D02*
X142776000Y-90519000D01*
X137044000Y-90479000D02*
X138860000Y-90479000D01*
X140940000Y-90479000D02*
X142756000Y-90479000D01*
X137066000Y-90439000D02*
X138860000Y-90439000D01*
X140940000Y-90439000D02*
X142734000Y-90439000D01*
X137088000Y-90399000D02*
X138860000Y-90399000D01*
X140940000Y-90399000D02*
X142712000Y-90399000D01*
X137110000Y-90359000D02*
X138860000Y-90359000D01*
X140940000Y-90359000D02*
X142690000Y-90359000D01*
X137134000Y-90319000D02*
X138860000Y-90319000D01*
X140940000Y-90319000D02*
X142666000Y-90319000D01*
X137158000Y-90279000D02*
X138860000Y-90279000D01*
X140940000Y-90279000D02*
X142642000Y-90279000D01*
X137184000Y-90239000D02*
X138860000Y-90239000D01*
X140940000Y-90239000D02*
X142616000Y-90239000D01*
X137210000Y-90199000D02*
X138860000Y-90199000D01*
X140940000Y-90199000D02*
X142590000Y-90199000D01*
X137236000Y-90159000D02*
X138860000Y-90159000D01*
X140940000Y-90159000D02*
X142564000Y-90159000D01*
X137264000Y-90119000D02*
X138860000Y-90119000D01*
X140940000Y-90119000D02*
X142536000Y-90119000D01*
X137293000Y-90079000D02*
X138860000Y-90079000D01*
X140940000Y-90079000D02*
X142507000Y-90079000D01*
X137322000Y-90039000D02*
X138860000Y-90039000D01*
X140940000Y-90039000D02*
X142478000Y-90039000D01*
X137352000Y-89999000D02*
X138860000Y-89999000D01*
X140940000Y-89999000D02*
X142448000Y-89999000D01*
X137384000Y-89959000D02*
X138860000Y-89959000D01*
X140940000Y-89959000D02*
X142416000Y-89959000D01*
X137416000Y-89919000D02*
X138860000Y-89919000D01*
X140940000Y-89919000D02*
X142384000Y-89919000D01*
X137450000Y-89879000D02*
X138860000Y-89879000D01*
X140940000Y-89879000D02*
X142350000Y-89879000D01*
X137484000Y-89839000D02*
X138860000Y-89839000D01*
X140940000Y-89839000D02*
X142316000Y-89839000D01*
X137520000Y-89799000D02*
X138860000Y-89799000D01*
X140940000Y-89799000D02*
X142280000Y-89799000D01*
X137557000Y-89759000D02*
X138860000Y-89759000D01*
X140940000Y-89759000D02*
X142243000Y-89759000D01*
X137595000Y-89719000D02*
X138860000Y-89719000D01*
X140940000Y-89719000D02*
X142205000Y-89719000D01*
X137635000Y-89679000D02*
X142165000Y-89679000D01*
X137676000Y-89639000D02*
X142124000Y-89639000D01*
X137718000Y-89599000D02*
X142082000Y-89599000D01*
X137763000Y-89559000D02*
X142037000Y-89559000D01*
X137808000Y-89519000D02*
X141992000Y-89519000D01*
X137856000Y-89479000D02*
X141944000Y-89479000D01*
X137905000Y-89439000D02*
X141895000Y-89439000D01*
X137956000Y-89399000D02*
X141844000Y-89399000D01*
X138010000Y-89359000D02*
X141790000Y-89359000D01*
X138066000Y-89319000D02*
X141734000Y-89319000D01*
X138124000Y-89279000D02*
X141676000Y-89279000D01*
X138186000Y-89239000D02*
X141614000Y-89239000D01*
X138250000Y-89199000D02*
X141550000Y-89199000D01*
X138319000Y-89159000D02*
X141481000Y-89159000D01*
X138391000Y-89119000D02*
X141409000Y-89119000D01*
X138468000Y-89079000D02*
X141332000Y-89079000D01*
X138550000Y-89039000D02*
X141250000Y-89039000D01*
X138638000Y-88999000D02*
X141162000Y-88999000D01*
X138735000Y-88959000D02*
X141065000Y-88959000D01*
X138841000Y-88919000D02*
X140959000Y-88919000D01*
X138960000Y-88879000D02*
X140840000Y-88879000D01*
X139098000Y-88839000D02*
X140702000Y-88839000D01*
X139267000Y-88799000D02*
X140533000Y-88799000D01*
X139498000Y-88759000D02*
X140302000Y-88759000D01*
X138061000Y-95500241D02*
X138061000Y-94870241D01*
X137746000Y-95185241D02*
X138376000Y-95185241D01*
G04 #@! TO.C,BT1*
X132095281Y-117795671D02*
G75*
G02X128550000Y-95350000I-45281J11495671D01*
G01*
X128523616Y-95351754D02*
G75*
G03X129050000Y-94600000I-273616J751754D01*
G01*
X132004719Y-117795671D02*
G75*
G03X135550000Y-95350000I45281J11495671D01*
G01*
X135576384Y-95351754D02*
G75*
G02X135050000Y-94600000I273616J751754D01*
G01*
X135050000Y-88900000D02*
X135050000Y-94600000D01*
X129050000Y-88900000D02*
X135050000Y-88900000D01*
X129050000Y-88900000D02*
X129050000Y-94600000D01*
G04 #@! TO.C,D1*
X106870000Y-102840000D02*
X104630000Y-102840000D01*
X104630000Y-102840000D02*
X104630000Y-107080000D01*
X104630000Y-107080000D02*
X106870000Y-107080000D01*
X106870000Y-107080000D02*
X106870000Y-102840000D01*
X105750000Y-102190000D02*
X105750000Y-102840000D01*
X105750000Y-107730000D02*
X105750000Y-107080000D01*
X106870000Y-103560000D02*
X104630000Y-103560000D01*
X106870000Y-103680000D02*
X104630000Y-103680000D01*
X106870000Y-103440000D02*
X104630000Y-103440000D01*
G04 #@! TO.C,U2*
X122850000Y-93000000D02*
X126450000Y-93000000D01*
X122811522Y-92988478D02*
G75*
G02X124650000Y-88550000I1838478J1838478D01*
G01*
X126488478Y-92988478D02*
G75*
G03X124650000Y-88550000I-1838478J1838478D01*
G01*
G04 #@! TO.C,U3*
X118574000Y-88580000D02*
X118574000Y-93914000D01*
X118574000Y-93914000D02*
X107906000Y-93914000D01*
X107906000Y-93914000D02*
X107906000Y-88580000D01*
X107906000Y-88580000D02*
X107906000Y-88580000D01*
X118066000Y-91120000D02*
X115780000Y-91120000D01*
X115780000Y-91120000D02*
X115780000Y-88834000D01*
X115780000Y-88834000D02*
X115780000Y-88834000D01*
X119150000Y-88250000D02*
X119150000Y-117450000D01*
X119150000Y-117450000D02*
X103700000Y-117450000D01*
X103700000Y-117450000D02*
X103700000Y-88250000D01*
X103700000Y-88250000D02*
X119150000Y-88250000D01*
X119150000Y-88250000D02*
X119150000Y-88250000D01*
X107906000Y-88580000D02*
X118574000Y-88580000D01*
X118574000Y-88580000D02*
X118574000Y-88580000D01*
G04 #@! TO.C,C1*
D11*
X142957142Y-96116666D02*
X143004761Y-96164285D01*
X143052380Y-96307142D01*
X143052380Y-96402380D01*
X143004761Y-96545238D01*
X142909523Y-96640476D01*
X142814285Y-96688095D01*
X142623809Y-96735714D01*
X142480952Y-96735714D01*
X142290476Y-96688095D01*
X142195238Y-96640476D01*
X142100000Y-96545238D01*
X142052380Y-96402380D01*
X142052380Y-96307142D01*
X142100000Y-96164285D01*
X142147619Y-96116666D01*
X143052380Y-95164285D02*
X143052380Y-95735714D01*
X143052380Y-95450000D02*
X142052380Y-95450000D01*
X142195238Y-95545238D01*
X142290476Y-95640476D01*
X142338095Y-95735714D01*
G04 #@! TO.C,BT1*
X122678571Y-116935714D02*
X122726190Y-116792857D01*
X122773809Y-116745238D01*
X122869047Y-116697619D01*
X123011904Y-116697619D01*
X123107142Y-116745238D01*
X123154761Y-116792857D01*
X123202380Y-116888095D01*
X123202380Y-117269047D01*
X122202380Y-117269047D01*
X122202380Y-116935714D01*
X122250000Y-116840476D01*
X122297619Y-116792857D01*
X122392857Y-116745238D01*
X122488095Y-116745238D01*
X122583333Y-116792857D01*
X122630952Y-116840476D01*
X122678571Y-116935714D01*
X122678571Y-117269047D01*
X122202380Y-116411904D02*
X122202380Y-115840476D01*
X123202380Y-116126190D02*
X122202380Y-116126190D01*
X123202380Y-114983333D02*
X123202380Y-115554761D01*
X123202380Y-115269047D02*
X122202380Y-115269047D01*
X122345238Y-115364285D01*
X122440476Y-115459523D01*
X122488095Y-115554761D01*
X132157142Y-94421428D02*
X132157142Y-93278571D01*
X132728571Y-93850000D02*
X131585714Y-93850000D01*
G04 #@! TO.C,D1*
X106152380Y-109638095D02*
X105152380Y-109638095D01*
X105152380Y-109400000D01*
X105200000Y-109257142D01*
X105295238Y-109161904D01*
X105390476Y-109114285D01*
X105580952Y-109066666D01*
X105723809Y-109066666D01*
X105914285Y-109114285D01*
X106009523Y-109161904D01*
X106104761Y-109257142D01*
X106152380Y-109400000D01*
X106152380Y-109638095D01*
X106152380Y-108114285D02*
X106152380Y-108685714D01*
X106152380Y-108400000D02*
X105152380Y-108400000D01*
X105295238Y-108495238D01*
X105390476Y-108590476D01*
X105438095Y-108685714D01*
X106302380Y-101061904D02*
X105302380Y-101061904D01*
X106302380Y-100490476D02*
X105730952Y-100919047D01*
X105302380Y-100490476D02*
X105873809Y-101061904D01*
G04 #@! TO.C,U2*
X120402380Y-90161904D02*
X121211904Y-90161904D01*
X121307142Y-90114285D01*
X121354761Y-90066666D01*
X121402380Y-89971428D01*
X121402380Y-89780952D01*
X121354761Y-89685714D01*
X121307142Y-89638095D01*
X121211904Y-89590476D01*
X120402380Y-89590476D01*
X120497619Y-89161904D02*
X120450000Y-89114285D01*
X120402380Y-89019047D01*
X120402380Y-88780952D01*
X120450000Y-88685714D01*
X120497619Y-88638095D01*
X120592857Y-88590476D01*
X120688095Y-88590476D01*
X120830952Y-88638095D01*
X121402380Y-89209523D01*
X121402380Y-88590476D01*
G04 #@! TO.C,U3*
X105252380Y-92011904D02*
X106061904Y-92011904D01*
X106157142Y-91964285D01*
X106204761Y-91916666D01*
X106252380Y-91821428D01*
X106252380Y-91630952D01*
X106204761Y-91535714D01*
X106157142Y-91488095D01*
X106061904Y-91440476D01*
X105252380Y-91440476D01*
X105252380Y-91059523D02*
X105252380Y-90440476D01*
X105633333Y-90773809D01*
X105633333Y-90630952D01*
X105680952Y-90535714D01*
X105728571Y-90488095D01*
X105823809Y-90440476D01*
X106061904Y-90440476D01*
X106157142Y-90488095D01*
X106204761Y-90535714D01*
X106252380Y-90630952D01*
X106252380Y-90916666D01*
X106204761Y-91011904D01*
X106157142Y-91059523D01*
G04 #@! TD*
M02*
