M48
INCH,TZ
T1C0.0118
T2C0.0295
T3C0.0300
T4C0.0315
T5C0.0591
%
G90
G05
T1
X41634Y-35276
X41634Y-38209
X42343Y-35807
X42539Y-39862
X43327Y-37303
X43327Y-41024
X46083Y-37303
X47185Y-35177
X47185Y-39114
X48012Y-37303
X48051Y-35886
X49154Y-37618
X53681Y-35079
T2
X48575Y-35886
X49075Y-35886
X49575Y-35886
T3
X43083Y-35374
X43083Y-36374
X44083Y-35374
X44083Y-36374
X45083Y-35374
X45083Y-36374
X46083Y-35374
X46083Y-36374
T4
X55079Y-35728
X55079Y-36713
X41634Y-39823
X41634Y-42823
T5
X51988Y-35866
X51988Y-43933
T0
M30
