G04 #@! TF.GenerationSoftware,KiCad,Pcbnew,5.0.0*
G04 #@! TF.CreationDate,2018-09-22T16:21:52+03:00*
G04 #@! TF.ProjectId,hamster-attiny85,68616D737465722D617474696E793835,rev?*
G04 #@! TF.SameCoordinates,Original*
G04 #@! TF.FileFunction,Legend,Bot*
G04 #@! TF.FilePolarity,Positive*
%FSLAX46Y46*%
G04 Gerber Fmt 4.6, Leading zero omitted, Abs format (unit mm)*
G04 Created by KiCad (PCBNEW 5.0.0) date Sat Sep 22 16:21:52 2018*
%MOMM*%
%LPD*%
G01*
G04 APERTURE LIST*
%ADD10C,0.300000*%
%ADD11C,0.120000*%
%ADD12C,0.150000*%
G04 APERTURE END LIST*
D10*
X125692857Y-114253571D02*
X125692857Y-112753571D01*
X125692857Y-113467857D02*
X124835714Y-113467857D01*
X124835714Y-114253571D02*
X124835714Y-112753571D01*
X123478571Y-114253571D02*
X123478571Y-113467857D01*
X123550000Y-113325000D01*
X123692857Y-113253571D01*
X123978571Y-113253571D01*
X124121428Y-113325000D01*
X123478571Y-114182142D02*
X123621428Y-114253571D01*
X123978571Y-114253571D01*
X124121428Y-114182142D01*
X124192857Y-114039285D01*
X124192857Y-113896428D01*
X124121428Y-113753571D01*
X123978571Y-113682142D01*
X123621428Y-113682142D01*
X123478571Y-113610714D01*
X122764285Y-114253571D02*
X122764285Y-113253571D01*
X122764285Y-113396428D02*
X122692857Y-113325000D01*
X122550000Y-113253571D01*
X122335714Y-113253571D01*
X122192857Y-113325000D01*
X122121428Y-113467857D01*
X122121428Y-114253571D01*
X122121428Y-113467857D02*
X122050000Y-113325000D01*
X121907142Y-113253571D01*
X121692857Y-113253571D01*
X121550000Y-113325000D01*
X121478571Y-113467857D01*
X121478571Y-114253571D01*
X120835714Y-114182142D02*
X120692857Y-114253571D01*
X120407142Y-114253571D01*
X120264285Y-114182142D01*
X120192857Y-114039285D01*
X120192857Y-113967857D01*
X120264285Y-113825000D01*
X120407142Y-113753571D01*
X120621428Y-113753571D01*
X120764285Y-113682142D01*
X120835714Y-113539285D01*
X120835714Y-113467857D01*
X120764285Y-113325000D01*
X120621428Y-113253571D01*
X120407142Y-113253571D01*
X120264285Y-113325000D01*
X119764285Y-113253571D02*
X119192857Y-113253571D01*
X119550000Y-112753571D02*
X119550000Y-114039285D01*
X119478571Y-114182142D01*
X119335714Y-114253571D01*
X119192857Y-114253571D01*
X118121428Y-114182142D02*
X118264285Y-114253571D01*
X118550000Y-114253571D01*
X118692857Y-114182142D01*
X118764285Y-114039285D01*
X118764285Y-113467857D01*
X118692857Y-113325000D01*
X118550000Y-113253571D01*
X118264285Y-113253571D01*
X118121428Y-113325000D01*
X118050000Y-113467857D01*
X118050000Y-113610714D01*
X118764285Y-113753571D01*
X117407142Y-114253571D02*
X117407142Y-113253571D01*
X117407142Y-113539285D02*
X117335714Y-113396428D01*
X117264285Y-113325000D01*
X117121428Y-113253571D01*
X116978571Y-113253571D01*
X114692857Y-114253571D02*
X114692857Y-113467857D01*
X114764285Y-113325000D01*
X114907142Y-113253571D01*
X115192857Y-113253571D01*
X115335714Y-113325000D01*
X114692857Y-114182142D02*
X114835714Y-114253571D01*
X115192857Y-114253571D01*
X115335714Y-114182142D01*
X115407142Y-114039285D01*
X115407142Y-113896428D01*
X115335714Y-113753571D01*
X115192857Y-113682142D01*
X114835714Y-113682142D01*
X114692857Y-113610714D01*
X114192857Y-113253571D02*
X113621428Y-113253571D01*
X113978571Y-112753571D02*
X113978571Y-114039285D01*
X113907142Y-114182142D01*
X113764285Y-114253571D01*
X113621428Y-114253571D01*
X113335714Y-113253571D02*
X112764285Y-113253571D01*
X113121428Y-112753571D02*
X113121428Y-114039285D01*
X113050000Y-114182142D01*
X112907142Y-114253571D01*
X112764285Y-114253571D01*
X112264285Y-114253571D02*
X112264285Y-113253571D01*
X112264285Y-112753571D02*
X112335714Y-112825000D01*
X112264285Y-112896428D01*
X112192857Y-112825000D01*
X112264285Y-112753571D01*
X112264285Y-112896428D01*
X111550000Y-113253571D02*
X111550000Y-114253571D01*
X111550000Y-113396428D02*
X111478571Y-113325000D01*
X111335714Y-113253571D01*
X111121428Y-113253571D01*
X110978571Y-113325000D01*
X110907142Y-113467857D01*
X110907142Y-114253571D01*
X110335714Y-113253571D02*
X109978571Y-114253571D01*
X109621428Y-113253571D02*
X109978571Y-114253571D01*
X110121428Y-114610714D01*
X110192857Y-114682142D01*
X110335714Y-114753571D01*
X108835714Y-113396428D02*
X108978571Y-113325000D01*
X109050000Y-113253571D01*
X109121428Y-113110714D01*
X109121428Y-113039285D01*
X109050000Y-112896428D01*
X108978571Y-112825000D01*
X108835714Y-112753571D01*
X108550000Y-112753571D01*
X108407142Y-112825000D01*
X108335714Y-112896428D01*
X108264285Y-113039285D01*
X108264285Y-113110714D01*
X108335714Y-113253571D01*
X108407142Y-113325000D01*
X108550000Y-113396428D01*
X108835714Y-113396428D01*
X108978571Y-113467857D01*
X109050000Y-113539285D01*
X109121428Y-113682142D01*
X109121428Y-113967857D01*
X109050000Y-114110714D01*
X108978571Y-114182142D01*
X108835714Y-114253571D01*
X108550000Y-114253571D01*
X108407142Y-114182142D01*
X108335714Y-114110714D01*
X108264285Y-113967857D01*
X108264285Y-113682142D01*
X108335714Y-113539285D01*
X108407142Y-113467857D01*
X108550000Y-113396428D01*
X106907142Y-112753571D02*
X107621428Y-112753571D01*
X107692857Y-113467857D01*
X107621428Y-113396428D01*
X107478571Y-113325000D01*
X107121428Y-113325000D01*
X106978571Y-113396428D01*
X106907142Y-113467857D01*
X106835714Y-113610714D01*
X106835714Y-113967857D01*
X106907142Y-114110714D01*
X106978571Y-114182142D01*
X107121428Y-114253571D01*
X107478571Y-114253571D01*
X107621428Y-114182142D01*
X107692857Y-114110714D01*
X118442857Y-115803571D02*
X118085714Y-116803571D01*
X117728571Y-115803571D01*
X116371428Y-116803571D02*
X117228571Y-116803571D01*
X116800000Y-116803571D02*
X116800000Y-115303571D01*
X116942857Y-115517857D01*
X117085714Y-115660714D01*
X117228571Y-115732142D01*
X115728571Y-116660714D02*
X115657142Y-116732142D01*
X115728571Y-116803571D01*
X115800000Y-116732142D01*
X115728571Y-116660714D01*
X115728571Y-116803571D01*
X114728571Y-115303571D02*
X114585714Y-115303571D01*
X114442857Y-115375000D01*
X114371428Y-115446428D01*
X114300000Y-115589285D01*
X114228571Y-115875000D01*
X114228571Y-116232142D01*
X114300000Y-116517857D01*
X114371428Y-116660714D01*
X114442857Y-116732142D01*
X114585714Y-116803571D01*
X114728571Y-116803571D01*
X114871428Y-116732142D01*
X114942857Y-116660714D01*
X115014285Y-116517857D01*
X115085714Y-116232142D01*
X115085714Y-115875000D01*
X115014285Y-115589285D01*
X114942857Y-115446428D01*
X114871428Y-115375000D01*
X114728571Y-115303571D01*
D11*
G04 #@! TO.C,C2*
X110960000Y-107839564D02*
X110960000Y-106635436D01*
X109140000Y-107839564D02*
X109140000Y-106635436D01*
G04 #@! TO.C,R1*
X122960000Y-100052064D02*
X122960000Y-98847936D01*
X121140000Y-100052064D02*
X121140000Y-98847936D01*
G04 #@! TO.C,R2*
X117960000Y-106535436D02*
X117960000Y-107739564D01*
X116140000Y-106535436D02*
X116140000Y-107739564D01*
D12*
G04 #@! TO.C,U1*
X116400000Y-97195000D02*
X116400000Y-97400000D01*
X110900000Y-97195000D02*
X110900000Y-97495000D01*
X110900000Y-102705000D02*
X110900000Y-102405000D01*
X116400000Y-102705000D02*
X116400000Y-102405000D01*
X116400000Y-97195000D02*
X110900000Y-97195000D01*
X116400000Y-102705000D02*
X110900000Y-102705000D01*
X116400000Y-97400000D02*
X118150000Y-97400000D01*
G04 #@! TO.C,C2*
X112657142Y-106783333D02*
X112704761Y-106735714D01*
X112752380Y-106592857D01*
X112752380Y-106497619D01*
X112704761Y-106354761D01*
X112609523Y-106259523D01*
X112514285Y-106211904D01*
X112323809Y-106164285D01*
X112180952Y-106164285D01*
X111990476Y-106211904D01*
X111895238Y-106259523D01*
X111800000Y-106354761D01*
X111752380Y-106497619D01*
X111752380Y-106592857D01*
X111800000Y-106735714D01*
X111847619Y-106783333D01*
X111847619Y-107164285D02*
X111800000Y-107211904D01*
X111752380Y-107307142D01*
X111752380Y-107545238D01*
X111800000Y-107640476D01*
X111847619Y-107688095D01*
X111942857Y-107735714D01*
X112038095Y-107735714D01*
X112180952Y-107688095D01*
X112752380Y-107116666D01*
X112752380Y-107735714D01*
G04 #@! TO.C,R1*
X120602380Y-99233333D02*
X120126190Y-98900000D01*
X120602380Y-98661904D02*
X119602380Y-98661904D01*
X119602380Y-99042857D01*
X119650000Y-99138095D01*
X119697619Y-99185714D01*
X119792857Y-99233333D01*
X119935714Y-99233333D01*
X120030952Y-99185714D01*
X120078571Y-99138095D01*
X120126190Y-99042857D01*
X120126190Y-98661904D01*
X120602380Y-100185714D02*
X120602380Y-99614285D01*
X120602380Y-99900000D02*
X119602380Y-99900000D01*
X119745238Y-99804761D01*
X119840476Y-99709523D01*
X119888095Y-99614285D01*
G04 #@! TO.C,R2*
X115202380Y-106833333D02*
X114726190Y-106500000D01*
X115202380Y-106261904D02*
X114202380Y-106261904D01*
X114202380Y-106642857D01*
X114250000Y-106738095D01*
X114297619Y-106785714D01*
X114392857Y-106833333D01*
X114535714Y-106833333D01*
X114630952Y-106785714D01*
X114678571Y-106738095D01*
X114726190Y-106642857D01*
X114726190Y-106261904D01*
X114297619Y-107214285D02*
X114250000Y-107261904D01*
X114202380Y-107357142D01*
X114202380Y-107595238D01*
X114250000Y-107690476D01*
X114297619Y-107738095D01*
X114392857Y-107785714D01*
X114488095Y-107785714D01*
X114630952Y-107738095D01*
X115202380Y-107166666D01*
X115202380Y-107785714D01*
G04 #@! TO.C,U1*
X113252380Y-95088095D02*
X114061904Y-95088095D01*
X114157142Y-95135714D01*
X114204761Y-95183333D01*
X114252380Y-95278571D01*
X114252380Y-95469047D01*
X114204761Y-95564285D01*
X114157142Y-95611904D01*
X114061904Y-95659523D01*
X113252380Y-95659523D01*
X114252380Y-96659523D02*
X114252380Y-96088095D01*
X114252380Y-96373809D02*
X113252380Y-96373809D01*
X113395238Y-96278571D01*
X113490476Y-96183333D01*
X113538095Y-96088095D01*
G04 #@! TD*
M02*
