G04 #@! TF.GenerationSoftware,KiCad,Pcbnew,5.0.0*
G04 #@! TF.CreationDate,2018-09-22T16:21:52+03:00*
G04 #@! TF.ProjectId,hamster-attiny85,68616D737465722D617474696E793835,rev?*
G04 #@! TF.SameCoordinates,Original*
G04 #@! TF.FileFunction,Copper,L1,Top*
G04 #@! TF.FilePolarity,Positive*
%FSLAX46Y46*%
G04 Gerber Fmt 4.6, Leading zero omitted, Abs format (unit mm)*
G04 Created by KiCad (PCBNEW 5.0.0) date Sat Sep 22 16:21:52 2018*
%MOMM*%
%LPD*%
G01*
G04 APERTURE LIST*
G04 #@! TA.AperFunction,ComponentPad*
%ADD10R,1.600000X1.600000*%
G04 #@! TD*
G04 #@! TA.AperFunction,ComponentPad*
%ADD11C,1.600000*%
G04 #@! TD*
G04 #@! TA.AperFunction,ComponentPad*
%ADD12C,3.000000*%
G04 #@! TD*
G04 #@! TA.AperFunction,ComponentPad*
%ADD13R,3.000000X3.000000*%
G04 #@! TD*
G04 #@! TA.AperFunction,ComponentPad*
%ADD14O,1.600000X1.600000*%
G04 #@! TD*
G04 #@! TA.AperFunction,ComponentPad*
%ADD15O,1.050000X1.500000*%
G04 #@! TD*
G04 #@! TA.AperFunction,ComponentPad*
%ADD16R,1.050000X1.500000*%
G04 #@! TD*
G04 #@! TA.AperFunction,ComponentPad*
%ADD17R,1.524000X1.524000*%
G04 #@! TD*
G04 #@! TA.AperFunction,ComponentPad*
%ADD18C,1.524000*%
G04 #@! TD*
G04 #@! TA.AperFunction,ViaPad*
%ADD19C,0.600000*%
G04 #@! TD*
G04 #@! TA.AperFunction,Conductor*
%ADD20C,0.500000*%
G04 #@! TD*
G04 APERTURE END LIST*
D10*
G04 #@! TO.P,C1,1*
G04 #@! TO.N,+3V3*
X139900000Y-93250000D03*
D11*
G04 #@! TO.P,C1,2*
G04 #@! TO.N,GND*
X139900000Y-90750000D03*
G04 #@! TD*
D12*
G04 #@! TO.P,BT1,2*
G04 #@! TO.N,GND*
X132050000Y-111590000D03*
D13*
G04 #@! TO.P,BT1,1*
G04 #@! TO.N,+3V3*
X132050000Y-91100000D03*
G04 #@! TD*
D10*
G04 #@! TO.P,D1,1*
G04 #@! TO.N,Net-(D1-Pad1)*
X105750000Y-101150000D03*
D14*
G04 #@! TO.P,D1,2*
G04 #@! TO.N,Net-(C2-Pad1)*
X105750000Y-108770000D03*
G04 #@! TD*
D15*
G04 #@! TO.P,U2,2*
G04 #@! TO.N,Net-(U1-Pad2)*
X124650000Y-91150000D03*
G04 #@! TO.P,U2,3*
G04 #@! TO.N,+3V3*
X125920000Y-91150000D03*
D16*
G04 #@! TO.P,U2,1*
G04 #@! TO.N,GND*
X123380000Y-91150000D03*
G04 #@! TD*
D17*
G04 #@! TO.P,U3,1*
G04 #@! TO.N,GND*
X117050000Y-89850000D03*
D18*
G04 #@! TO.P,U3,2*
G04 #@! TO.N,+3V3*
X117050000Y-92390000D03*
G04 #@! TO.P,U3,3*
G04 #@! TO.N,Net-(U1-Pad3)*
X114510000Y-89850000D03*
G04 #@! TO.P,U3,4*
G04 #@! TO.N,Net-(C2-Pad1)*
X114510000Y-92390000D03*
G04 #@! TO.P,U3,5*
G04 #@! TO.N,Net-(D1-Pad1)*
X111970000Y-89850000D03*
G04 #@! TO.P,U3,6*
G04 #@! TO.N,Net-(U1-Pad6)*
X111970000Y-92390000D03*
G04 #@! TO.P,U3,7*
G04 #@! TO.N,Net-(U1-Pad5)*
X109430000Y-89850000D03*
G04 #@! TO.P,U3,8*
G04 #@! TO.N,Net-(U3-Pad8)*
X109430000Y-92390000D03*
G04 #@! TD*
D19*
G04 #@! TO.N,GND*
X110050000Y-104200000D03*
X122050000Y-91150000D03*
X136350000Y-89100000D03*
G04 #@! TO.N,+3V3*
X124850000Y-95550000D03*
X121950000Y-94750000D03*
X117050000Y-94750000D03*
X110050000Y-94750000D03*
G04 #@! TO.N,Net-(D1-Pad1)*
X105750000Y-97050000D03*
X105750000Y-89600000D03*
G04 #@! TO.N,Net-(U1-Pad3)*
X119850000Y-99350000D03*
X119850000Y-89350000D03*
G04 #@! TO.N,Net-(U1-Pad5)*
X107550000Y-90950000D03*
X108050002Y-101250000D03*
G04 #@! TD*
D20*
G04 #@! TO.N,+3V3*
X117050000Y-94750000D02*
X110050000Y-94750000D01*
X124850000Y-95550000D02*
X123850000Y-95550000D01*
X123050000Y-94750000D02*
X121950000Y-94750000D01*
X123850000Y-95550000D02*
X123050000Y-94750000D01*
G04 #@! TO.N,Net-(D1-Pad1)*
X105750000Y-97050000D02*
X105750000Y-89600000D01*
G04 #@! TO.N,Net-(U1-Pad3)*
X119850000Y-99350000D02*
X119850000Y-89350000D01*
G04 #@! TO.N,Net-(U1-Pad5)*
X107750003Y-100950001D02*
X108050002Y-101250000D01*
X107550000Y-90950000D02*
X107700000Y-91100000D01*
X107700000Y-100899998D02*
X107750003Y-100950001D01*
X107700000Y-91100000D02*
X107700000Y-100899998D01*
G04 #@! TD*
G04 #@! TO.N,GND*
G36*
X144500000Y-87394118D02*
X144500000Y-115507950D01*
X143850000Y-115405000D01*
X143094453Y-115524667D01*
X142412865Y-115871953D01*
X141871953Y-116412865D01*
X141524667Y-117094453D01*
X141405000Y-117850000D01*
X141524667Y-118605547D01*
X141674698Y-118900000D01*
X103000000Y-118900000D01*
X103000000Y-113086756D01*
X130558901Y-113086756D01*
X130700016Y-113454897D01*
X131516443Y-113829556D01*
X132414099Y-113863263D01*
X133256324Y-113550886D01*
X133399984Y-113454897D01*
X133541099Y-113086756D01*
X132050000Y-111595657D01*
X130558901Y-113086756D01*
X103000000Y-113086756D01*
X103000000Y-111954099D01*
X129776737Y-111954099D01*
X130089114Y-112796324D01*
X130185103Y-112939984D01*
X130553244Y-113081099D01*
X132044343Y-111590000D01*
X132055657Y-111590000D01*
X133546756Y-113081099D01*
X133914897Y-112939984D01*
X134289556Y-112123557D01*
X134323263Y-111225901D01*
X134010886Y-110383676D01*
X133914897Y-110240016D01*
X133546756Y-110098901D01*
X132055657Y-111590000D01*
X132044343Y-111590000D01*
X130553244Y-110098901D01*
X130185103Y-110240016D01*
X129810444Y-111056443D01*
X129776737Y-111954099D01*
X103000000Y-111954099D01*
X103000000Y-108770000D01*
X104169634Y-108770000D01*
X104289932Y-109374780D01*
X104632512Y-109887488D01*
X105145220Y-110230068D01*
X105597340Y-110320000D01*
X105902660Y-110320000D01*
X106354780Y-110230068D01*
X106559551Y-110093244D01*
X130558901Y-110093244D01*
X132050000Y-111584343D01*
X133541099Y-110093244D01*
X133399984Y-109725103D01*
X132583557Y-109350444D01*
X131685901Y-109316737D01*
X130843676Y-109629114D01*
X130700016Y-109725103D01*
X130558901Y-110093244D01*
X106559551Y-110093244D01*
X106867488Y-109887488D01*
X107210068Y-109374780D01*
X107330366Y-108770000D01*
X107210068Y-108165220D01*
X106867488Y-107652512D01*
X106354780Y-107309932D01*
X105902660Y-107220000D01*
X105597340Y-107220000D01*
X105145220Y-107309932D01*
X104632512Y-107652512D01*
X104289932Y-108165220D01*
X104169634Y-108770000D01*
X103000000Y-108770000D01*
X103000000Y-90202683D01*
X103044453Y-90225333D01*
X103800000Y-90345000D01*
X104555547Y-90225333D01*
X104750001Y-90126254D01*
X104750000Y-96720431D01*
X104700000Y-96841142D01*
X104700000Y-97258858D01*
X104859853Y-97644777D01*
X105155223Y-97940147D01*
X105541142Y-98100000D01*
X105958858Y-98100000D01*
X106344777Y-97940147D01*
X106640147Y-97644777D01*
X106700001Y-97500278D01*
X106700001Y-99615144D01*
X106550000Y-99585307D01*
X104950000Y-99585307D01*
X104657365Y-99643516D01*
X104409280Y-99809280D01*
X104243516Y-100057365D01*
X104185307Y-100350000D01*
X104185307Y-101950000D01*
X104243516Y-102242635D01*
X104409280Y-102490720D01*
X104657365Y-102656484D01*
X104950000Y-102714693D01*
X106550000Y-102714693D01*
X106842635Y-102656484D01*
X107090720Y-102490720D01*
X107256484Y-102242635D01*
X107306461Y-101991383D01*
X107455225Y-102140147D01*
X107841144Y-102300000D01*
X108258860Y-102300000D01*
X108644779Y-102140147D01*
X108940149Y-101844777D01*
X109100002Y-101458858D01*
X109100002Y-101041142D01*
X108940149Y-100655223D01*
X108700000Y-100415074D01*
X108700000Y-93724201D01*
X109129244Y-93902000D01*
X109413076Y-93902000D01*
X109159853Y-94155223D01*
X109000000Y-94541142D01*
X109000000Y-94958858D01*
X109159853Y-95344777D01*
X109455223Y-95640147D01*
X109841142Y-95800000D01*
X110258858Y-95800000D01*
X110379569Y-95750000D01*
X116720431Y-95750000D01*
X116841142Y-95800000D01*
X117258858Y-95800000D01*
X117644777Y-95640147D01*
X117940147Y-95344777D01*
X118100000Y-94958858D01*
X118100000Y-94541142D01*
X117940147Y-94155223D01*
X117644777Y-93859853D01*
X117548642Y-93820033D01*
X117906479Y-93671812D01*
X118331812Y-93246479D01*
X118562000Y-92690756D01*
X118562000Y-92089244D01*
X118331812Y-91533521D01*
X118108097Y-91309806D01*
X118241372Y-91254602D01*
X118454601Y-91041373D01*
X118570000Y-90762776D01*
X118570000Y-90043500D01*
X118380500Y-89854000D01*
X117054000Y-89854000D01*
X117054000Y-89874000D01*
X117046000Y-89874000D01*
X117046000Y-89854000D01*
X117026000Y-89854000D01*
X117026000Y-89846000D01*
X117046000Y-89846000D01*
X117046000Y-88519500D01*
X117054000Y-88519500D01*
X117054000Y-89846000D01*
X118380500Y-89846000D01*
X118570000Y-89656500D01*
X118570000Y-89141142D01*
X118800000Y-89141142D01*
X118800000Y-89558858D01*
X118850001Y-89679571D01*
X118850000Y-99020431D01*
X118800000Y-99141142D01*
X118800000Y-99558858D01*
X118959853Y-99944777D01*
X119255223Y-100240147D01*
X119641142Y-100400000D01*
X120058858Y-100400000D01*
X120444777Y-100240147D01*
X120740147Y-99944777D01*
X120900000Y-99558858D01*
X120900000Y-99141142D01*
X120850000Y-99020431D01*
X120850000Y-94541142D01*
X120900000Y-94541142D01*
X120900000Y-94958858D01*
X121059853Y-95344777D01*
X121355223Y-95640147D01*
X121741142Y-95800000D01*
X122158858Y-95800000D01*
X122279569Y-95750000D01*
X122635788Y-95750000D01*
X123073247Y-96187460D01*
X123129040Y-96270960D01*
X123382247Y-96440147D01*
X123459819Y-96491979D01*
X123850000Y-96569591D01*
X123948490Y-96550000D01*
X124520431Y-96550000D01*
X124641142Y-96600000D01*
X125058858Y-96600000D01*
X125444777Y-96440147D01*
X125740147Y-96144777D01*
X125900000Y-95758858D01*
X125900000Y-95341142D01*
X125740147Y-94955223D01*
X125444777Y-94659853D01*
X125058858Y-94500000D01*
X124641142Y-94500000D01*
X124520431Y-94550000D01*
X124264213Y-94550000D01*
X123826754Y-94112542D01*
X123770960Y-94029040D01*
X123440181Y-93808021D01*
X123148490Y-93750000D01*
X123050000Y-93730409D01*
X122951510Y-93750000D01*
X122279569Y-93750000D01*
X122158858Y-93700000D01*
X121741142Y-93700000D01*
X121355223Y-93859853D01*
X121059853Y-94155223D01*
X120900000Y-94541142D01*
X120850000Y-94541142D01*
X120850000Y-90249225D01*
X122097000Y-90249225D01*
X122097000Y-90956500D01*
X122286500Y-91146000D01*
X123375000Y-91146000D01*
X123375000Y-91154000D01*
X122286500Y-91154000D01*
X122097000Y-91343500D01*
X122097000Y-92050775D01*
X122212398Y-92329372D01*
X122425627Y-92542601D01*
X122704224Y-92658000D01*
X123186500Y-92658000D01*
X123376000Y-92468500D01*
X123376000Y-91505600D01*
X123384000Y-91545819D01*
X123384000Y-92468500D01*
X123573500Y-92658000D01*
X124055776Y-92658000D01*
X124220865Y-92589618D01*
X124650000Y-92674978D01*
X125147480Y-92576023D01*
X125285001Y-92484135D01*
X125422521Y-92576023D01*
X125920000Y-92674978D01*
X126417480Y-92576023D01*
X126839223Y-92294223D01*
X127121023Y-91872479D01*
X127195000Y-91500572D01*
X127195000Y-90799427D01*
X127121023Y-90427520D01*
X126839223Y-90005777D01*
X126417479Y-89723977D01*
X125920000Y-89625022D01*
X125422520Y-89723977D01*
X125285000Y-89815865D01*
X125147479Y-89723977D01*
X124650000Y-89625022D01*
X124220865Y-89710382D01*
X124055776Y-89642000D01*
X123573500Y-89642000D01*
X123384000Y-89831500D01*
X123384000Y-90754182D01*
X123376000Y-90794401D01*
X123376000Y-89831500D01*
X123186500Y-89642000D01*
X122704224Y-89642000D01*
X122425627Y-89757399D01*
X122212398Y-89970628D01*
X122097000Y-90249225D01*
X120850000Y-90249225D01*
X120850000Y-89679569D01*
X120882958Y-89600000D01*
X129785307Y-89600000D01*
X129785307Y-92600000D01*
X129843516Y-92892635D01*
X130009280Y-93140720D01*
X130257365Y-93306484D01*
X130550000Y-93364693D01*
X133550000Y-93364693D01*
X133842635Y-93306484D01*
X134090720Y-93140720D01*
X134256484Y-92892635D01*
X134314693Y-92600000D01*
X134314693Y-91002450D01*
X138331665Y-91002450D01*
X138547656Y-91583409D01*
X138612511Y-91680471D01*
X138874669Y-91730128D01*
X138807365Y-91743516D01*
X138559280Y-91909280D01*
X138393516Y-92157365D01*
X138335307Y-92450000D01*
X138335307Y-94050000D01*
X138393516Y-94342635D01*
X138559280Y-94590720D01*
X138807365Y-94756484D01*
X139100000Y-94814693D01*
X140700000Y-94814693D01*
X140992635Y-94756484D01*
X141240720Y-94590720D01*
X141406484Y-94342635D01*
X141464693Y-94050000D01*
X141464693Y-92450000D01*
X141406484Y-92157365D01*
X141240720Y-91909280D01*
X140992635Y-91743516D01*
X140925331Y-91730128D01*
X141187489Y-91680471D01*
X141445561Y-91116942D01*
X141468335Y-90497550D01*
X141252344Y-89916591D01*
X141187489Y-89819529D01*
X140892083Y-89763574D01*
X139905657Y-90750000D01*
X139919799Y-90764142D01*
X139914142Y-90769799D01*
X139900000Y-90755657D01*
X139885858Y-90769799D01*
X139880201Y-90764142D01*
X139894343Y-90750000D01*
X138907917Y-89763574D01*
X138612511Y-89819529D01*
X138354439Y-90383058D01*
X138331665Y-91002450D01*
X134314693Y-91002450D01*
X134314693Y-89757917D01*
X138913574Y-89757917D01*
X139900000Y-90744343D01*
X140886426Y-89757917D01*
X140830471Y-89462511D01*
X140266942Y-89204439D01*
X139647550Y-89181665D01*
X139066591Y-89397656D01*
X138969529Y-89462511D01*
X138913574Y-89757917D01*
X134314693Y-89757917D01*
X134314693Y-89600000D01*
X134256484Y-89307365D01*
X134090720Y-89059280D01*
X133842635Y-88893516D01*
X133550000Y-88835307D01*
X130550000Y-88835307D01*
X130257365Y-88893516D01*
X130009280Y-89059280D01*
X129843516Y-89307365D01*
X129785307Y-89600000D01*
X120882958Y-89600000D01*
X120900000Y-89558858D01*
X120900000Y-89141142D01*
X120740147Y-88755223D01*
X120444777Y-88459853D01*
X120058858Y-88300000D01*
X119641142Y-88300000D01*
X119255223Y-88459853D01*
X118959853Y-88755223D01*
X118800000Y-89141142D01*
X118570000Y-89141142D01*
X118570000Y-88937224D01*
X118454601Y-88658627D01*
X118241372Y-88445398D01*
X117962775Y-88330000D01*
X117243500Y-88330000D01*
X117054000Y-88519500D01*
X117046000Y-88519500D01*
X116856500Y-88330000D01*
X116137225Y-88330000D01*
X115858628Y-88445398D01*
X115645399Y-88658627D01*
X115590194Y-88791903D01*
X115366479Y-88568188D01*
X114810756Y-88338000D01*
X114209244Y-88338000D01*
X113653521Y-88568188D01*
X113240000Y-88981709D01*
X112826479Y-88568188D01*
X112270756Y-88338000D01*
X111669244Y-88338000D01*
X111113521Y-88568188D01*
X110700000Y-88981709D01*
X110286479Y-88568188D01*
X109730756Y-88338000D01*
X109129244Y-88338000D01*
X108573521Y-88568188D01*
X108148188Y-88993521D01*
X107918000Y-89549244D01*
X107918000Y-89965919D01*
X107758858Y-89900000D01*
X107341142Y-89900000D01*
X106955223Y-90059853D01*
X106750000Y-90265076D01*
X106750000Y-89929569D01*
X106800000Y-89808858D01*
X106800000Y-89391142D01*
X106640147Y-89005223D01*
X106344777Y-88709853D01*
X106130772Y-88621209D01*
X106245000Y-87900000D01*
X106125333Y-87144453D01*
X105782845Y-86472281D01*
X144500000Y-87394118D01*
X144500000Y-87394118D01*
G37*
X144500000Y-87394118D02*
X144500000Y-115507950D01*
X143850000Y-115405000D01*
X143094453Y-115524667D01*
X142412865Y-115871953D01*
X141871953Y-116412865D01*
X141524667Y-117094453D01*
X141405000Y-117850000D01*
X141524667Y-118605547D01*
X141674698Y-118900000D01*
X103000000Y-118900000D01*
X103000000Y-113086756D01*
X130558901Y-113086756D01*
X130700016Y-113454897D01*
X131516443Y-113829556D01*
X132414099Y-113863263D01*
X133256324Y-113550886D01*
X133399984Y-113454897D01*
X133541099Y-113086756D01*
X132050000Y-111595657D01*
X130558901Y-113086756D01*
X103000000Y-113086756D01*
X103000000Y-111954099D01*
X129776737Y-111954099D01*
X130089114Y-112796324D01*
X130185103Y-112939984D01*
X130553244Y-113081099D01*
X132044343Y-111590000D01*
X132055657Y-111590000D01*
X133546756Y-113081099D01*
X133914897Y-112939984D01*
X134289556Y-112123557D01*
X134323263Y-111225901D01*
X134010886Y-110383676D01*
X133914897Y-110240016D01*
X133546756Y-110098901D01*
X132055657Y-111590000D01*
X132044343Y-111590000D01*
X130553244Y-110098901D01*
X130185103Y-110240016D01*
X129810444Y-111056443D01*
X129776737Y-111954099D01*
X103000000Y-111954099D01*
X103000000Y-108770000D01*
X104169634Y-108770000D01*
X104289932Y-109374780D01*
X104632512Y-109887488D01*
X105145220Y-110230068D01*
X105597340Y-110320000D01*
X105902660Y-110320000D01*
X106354780Y-110230068D01*
X106559551Y-110093244D01*
X130558901Y-110093244D01*
X132050000Y-111584343D01*
X133541099Y-110093244D01*
X133399984Y-109725103D01*
X132583557Y-109350444D01*
X131685901Y-109316737D01*
X130843676Y-109629114D01*
X130700016Y-109725103D01*
X130558901Y-110093244D01*
X106559551Y-110093244D01*
X106867488Y-109887488D01*
X107210068Y-109374780D01*
X107330366Y-108770000D01*
X107210068Y-108165220D01*
X106867488Y-107652512D01*
X106354780Y-107309932D01*
X105902660Y-107220000D01*
X105597340Y-107220000D01*
X105145220Y-107309932D01*
X104632512Y-107652512D01*
X104289932Y-108165220D01*
X104169634Y-108770000D01*
X103000000Y-108770000D01*
X103000000Y-90202683D01*
X103044453Y-90225333D01*
X103800000Y-90345000D01*
X104555547Y-90225333D01*
X104750001Y-90126254D01*
X104750000Y-96720431D01*
X104700000Y-96841142D01*
X104700000Y-97258858D01*
X104859853Y-97644777D01*
X105155223Y-97940147D01*
X105541142Y-98100000D01*
X105958858Y-98100000D01*
X106344777Y-97940147D01*
X106640147Y-97644777D01*
X106700001Y-97500278D01*
X106700001Y-99615144D01*
X106550000Y-99585307D01*
X104950000Y-99585307D01*
X104657365Y-99643516D01*
X104409280Y-99809280D01*
X104243516Y-100057365D01*
X104185307Y-100350000D01*
X104185307Y-101950000D01*
X104243516Y-102242635D01*
X104409280Y-102490720D01*
X104657365Y-102656484D01*
X104950000Y-102714693D01*
X106550000Y-102714693D01*
X106842635Y-102656484D01*
X107090720Y-102490720D01*
X107256484Y-102242635D01*
X107306461Y-101991383D01*
X107455225Y-102140147D01*
X107841144Y-102300000D01*
X108258860Y-102300000D01*
X108644779Y-102140147D01*
X108940149Y-101844777D01*
X109100002Y-101458858D01*
X109100002Y-101041142D01*
X108940149Y-100655223D01*
X108700000Y-100415074D01*
X108700000Y-93724201D01*
X109129244Y-93902000D01*
X109413076Y-93902000D01*
X109159853Y-94155223D01*
X109000000Y-94541142D01*
X109000000Y-94958858D01*
X109159853Y-95344777D01*
X109455223Y-95640147D01*
X109841142Y-95800000D01*
X110258858Y-95800000D01*
X110379569Y-95750000D01*
X116720431Y-95750000D01*
X116841142Y-95800000D01*
X117258858Y-95800000D01*
X117644777Y-95640147D01*
X117940147Y-95344777D01*
X118100000Y-94958858D01*
X118100000Y-94541142D01*
X117940147Y-94155223D01*
X117644777Y-93859853D01*
X117548642Y-93820033D01*
X117906479Y-93671812D01*
X118331812Y-93246479D01*
X118562000Y-92690756D01*
X118562000Y-92089244D01*
X118331812Y-91533521D01*
X118108097Y-91309806D01*
X118241372Y-91254602D01*
X118454601Y-91041373D01*
X118570000Y-90762776D01*
X118570000Y-90043500D01*
X118380500Y-89854000D01*
X117054000Y-89854000D01*
X117054000Y-89874000D01*
X117046000Y-89874000D01*
X117046000Y-89854000D01*
X117026000Y-89854000D01*
X117026000Y-89846000D01*
X117046000Y-89846000D01*
X117046000Y-88519500D01*
X117054000Y-88519500D01*
X117054000Y-89846000D01*
X118380500Y-89846000D01*
X118570000Y-89656500D01*
X118570000Y-89141142D01*
X118800000Y-89141142D01*
X118800000Y-89558858D01*
X118850001Y-89679571D01*
X118850000Y-99020431D01*
X118800000Y-99141142D01*
X118800000Y-99558858D01*
X118959853Y-99944777D01*
X119255223Y-100240147D01*
X119641142Y-100400000D01*
X120058858Y-100400000D01*
X120444777Y-100240147D01*
X120740147Y-99944777D01*
X120900000Y-99558858D01*
X120900000Y-99141142D01*
X120850000Y-99020431D01*
X120850000Y-94541142D01*
X120900000Y-94541142D01*
X120900000Y-94958858D01*
X121059853Y-95344777D01*
X121355223Y-95640147D01*
X121741142Y-95800000D01*
X122158858Y-95800000D01*
X122279569Y-95750000D01*
X122635788Y-95750000D01*
X123073247Y-96187460D01*
X123129040Y-96270960D01*
X123382247Y-96440147D01*
X123459819Y-96491979D01*
X123850000Y-96569591D01*
X123948490Y-96550000D01*
X124520431Y-96550000D01*
X124641142Y-96600000D01*
X125058858Y-96600000D01*
X125444777Y-96440147D01*
X125740147Y-96144777D01*
X125900000Y-95758858D01*
X125900000Y-95341142D01*
X125740147Y-94955223D01*
X125444777Y-94659853D01*
X125058858Y-94500000D01*
X124641142Y-94500000D01*
X124520431Y-94550000D01*
X124264213Y-94550000D01*
X123826754Y-94112542D01*
X123770960Y-94029040D01*
X123440181Y-93808021D01*
X123148490Y-93750000D01*
X123050000Y-93730409D01*
X122951510Y-93750000D01*
X122279569Y-93750000D01*
X122158858Y-93700000D01*
X121741142Y-93700000D01*
X121355223Y-93859853D01*
X121059853Y-94155223D01*
X120900000Y-94541142D01*
X120850000Y-94541142D01*
X120850000Y-90249225D01*
X122097000Y-90249225D01*
X122097000Y-90956500D01*
X122286500Y-91146000D01*
X123375000Y-91146000D01*
X123375000Y-91154000D01*
X122286500Y-91154000D01*
X122097000Y-91343500D01*
X122097000Y-92050775D01*
X122212398Y-92329372D01*
X122425627Y-92542601D01*
X122704224Y-92658000D01*
X123186500Y-92658000D01*
X123376000Y-92468500D01*
X123376000Y-91505600D01*
X123384000Y-91545819D01*
X123384000Y-92468500D01*
X123573500Y-92658000D01*
X124055776Y-92658000D01*
X124220865Y-92589618D01*
X124650000Y-92674978D01*
X125147480Y-92576023D01*
X125285001Y-92484135D01*
X125422521Y-92576023D01*
X125920000Y-92674978D01*
X126417480Y-92576023D01*
X126839223Y-92294223D01*
X127121023Y-91872479D01*
X127195000Y-91500572D01*
X127195000Y-90799427D01*
X127121023Y-90427520D01*
X126839223Y-90005777D01*
X126417479Y-89723977D01*
X125920000Y-89625022D01*
X125422520Y-89723977D01*
X125285000Y-89815865D01*
X125147479Y-89723977D01*
X124650000Y-89625022D01*
X124220865Y-89710382D01*
X124055776Y-89642000D01*
X123573500Y-89642000D01*
X123384000Y-89831500D01*
X123384000Y-90754182D01*
X123376000Y-90794401D01*
X123376000Y-89831500D01*
X123186500Y-89642000D01*
X122704224Y-89642000D01*
X122425627Y-89757399D01*
X122212398Y-89970628D01*
X122097000Y-90249225D01*
X120850000Y-90249225D01*
X120850000Y-89679569D01*
X120882958Y-89600000D01*
X129785307Y-89600000D01*
X129785307Y-92600000D01*
X129843516Y-92892635D01*
X130009280Y-93140720D01*
X130257365Y-93306484D01*
X130550000Y-93364693D01*
X133550000Y-93364693D01*
X133842635Y-93306484D01*
X134090720Y-93140720D01*
X134256484Y-92892635D01*
X134314693Y-92600000D01*
X134314693Y-91002450D01*
X138331665Y-91002450D01*
X138547656Y-91583409D01*
X138612511Y-91680471D01*
X138874669Y-91730128D01*
X138807365Y-91743516D01*
X138559280Y-91909280D01*
X138393516Y-92157365D01*
X138335307Y-92450000D01*
X138335307Y-94050000D01*
X138393516Y-94342635D01*
X138559280Y-94590720D01*
X138807365Y-94756484D01*
X139100000Y-94814693D01*
X140700000Y-94814693D01*
X140992635Y-94756484D01*
X141240720Y-94590720D01*
X141406484Y-94342635D01*
X141464693Y-94050000D01*
X141464693Y-92450000D01*
X141406484Y-92157365D01*
X141240720Y-91909280D01*
X140992635Y-91743516D01*
X140925331Y-91730128D01*
X141187489Y-91680471D01*
X141445561Y-91116942D01*
X141468335Y-90497550D01*
X141252344Y-89916591D01*
X141187489Y-89819529D01*
X140892083Y-89763574D01*
X139905657Y-90750000D01*
X139919799Y-90764142D01*
X139914142Y-90769799D01*
X139900000Y-90755657D01*
X139885858Y-90769799D01*
X139880201Y-90764142D01*
X139894343Y-90750000D01*
X138907917Y-89763574D01*
X138612511Y-89819529D01*
X138354439Y-90383058D01*
X138331665Y-91002450D01*
X134314693Y-91002450D01*
X134314693Y-89757917D01*
X138913574Y-89757917D01*
X139900000Y-90744343D01*
X140886426Y-89757917D01*
X140830471Y-89462511D01*
X140266942Y-89204439D01*
X139647550Y-89181665D01*
X139066591Y-89397656D01*
X138969529Y-89462511D01*
X138913574Y-89757917D01*
X134314693Y-89757917D01*
X134314693Y-89600000D01*
X134256484Y-89307365D01*
X134090720Y-89059280D01*
X133842635Y-88893516D01*
X133550000Y-88835307D01*
X130550000Y-88835307D01*
X130257365Y-88893516D01*
X130009280Y-89059280D01*
X129843516Y-89307365D01*
X129785307Y-89600000D01*
X120882958Y-89600000D01*
X120900000Y-89558858D01*
X120900000Y-89141142D01*
X120740147Y-88755223D01*
X120444777Y-88459853D01*
X120058858Y-88300000D01*
X119641142Y-88300000D01*
X119255223Y-88459853D01*
X118959853Y-88755223D01*
X118800000Y-89141142D01*
X118570000Y-89141142D01*
X118570000Y-88937224D01*
X118454601Y-88658627D01*
X118241372Y-88445398D01*
X117962775Y-88330000D01*
X117243500Y-88330000D01*
X117054000Y-88519500D01*
X117046000Y-88519500D01*
X116856500Y-88330000D01*
X116137225Y-88330000D01*
X115858628Y-88445398D01*
X115645399Y-88658627D01*
X115590194Y-88791903D01*
X115366479Y-88568188D01*
X114810756Y-88338000D01*
X114209244Y-88338000D01*
X113653521Y-88568188D01*
X113240000Y-88981709D01*
X112826479Y-88568188D01*
X112270756Y-88338000D01*
X111669244Y-88338000D01*
X111113521Y-88568188D01*
X110700000Y-88981709D01*
X110286479Y-88568188D01*
X109730756Y-88338000D01*
X109129244Y-88338000D01*
X108573521Y-88568188D01*
X108148188Y-88993521D01*
X107918000Y-89549244D01*
X107918000Y-89965919D01*
X107758858Y-89900000D01*
X107341142Y-89900000D01*
X106955223Y-90059853D01*
X106750000Y-90265076D01*
X106750000Y-89929569D01*
X106800000Y-89808858D01*
X106800000Y-89391142D01*
X106640147Y-89005223D01*
X106344777Y-88709853D01*
X106130772Y-88621209D01*
X106245000Y-87900000D01*
X106125333Y-87144453D01*
X105782845Y-86472281D01*
X144500000Y-87394118D01*
G04 #@! TD*
M02*
